<?xml version="1.0" encoding="utf-8"?>
<svg xmlns="http://www.w3.org/2000/svg" id="Ebene_1" data-name="Ebene 1" viewBox="0 0 2000 315">
  <path d="M1232.84,46.77l74.54-21.64c8.15-2.37,7.27-8.57-1.22-8.57h-46.35c-7.49,0-14.03,3.86-19.35,9.13-4.82,4.77-7.4,7.71-11.94,14.5-4.07,6.09-2.71,8.61,4.32,6.57h0Z"/>
  <path d="M1998.71,220.79c1.4,0,1.79-1.92.51-2.47l-13.6-5.87c-2.41-1.04-5-1.59-7.62-1.63-24.23-.3-153.33-2.26-241.59-3.61-21.08-.32-23.81-4.68-19.86-19.71,4.1-15.6,9.45-28.2,17.1-44.84,6.47-14.07,10-32.9-26.55-16.63-32.42,14.44-54.46,26.89-80.72,43.78-4.39,2.82-5.13,1.94-1.87-2.09,12.98-16.04,23.83-29.3,32.06-37.84,13.62-14.15,17.91-19.56,5.97-17.43-1.52.27-2.99.54-4.41.8-4.47.88-13.49,2.39-24.02,5.27-16.1,4.4-23.84,6.36-35.12,8.75-8.67,1.84-14.44,1.5-16.48-7.03-1.46-6.09-9.41-9.38-22.02-8.23-17.61,1.61-34.19,8.94-46.35,15.59-7.6,4.16-14.34,8.19-20.31,12.16-3.01,2-6.1,3.87-9.27,5.6-30.19,16.49-81.23,44.33-88.75,48.45-10.79,5.9-12.44-.06-9.67-11.14,2.92-11.66,7.15-22.76,12.28-33.24,5.39-11.01,3.97-9.48,14.61-15.56,47.92-27.39,101.73-60.55,135.26-90.62,38.92-34.91,18.06-34.11,5.22-32.1-26.33,4.11-63.91,18.4-85.6,32.93-25.19,16.88-51.39,40.23-78.77,73.49-4.49,5.48-8.7,11.2-12.6,17.12-5.47,8.27-4.16,7.09-12.86,11.84l-5.12,2.8-.07.04h0l-79.49,43.44c-11.13,6.08-13.41-.19-10.55-11.61,1.88-7.47,4.26-14.81,7.12-21.97,4.8-12.05,3.45-10.4,14.43-17.3,35.71-22.44,73.38-50.72,119.02-95.86,39.07-38.64,19.54-35.85,3.66-32.64-29.89,6.05-47.01,14.78-67.36,29.18-24.04,17.01-48.97,39.91-74.94,71.45-7.83,9.51-14.68,19.88-20.67,30.5-5.59,9.93-4.21,8.59-14.22,14.05l-4.78,2.61-.03.02h-.01s-37.3,20.4-37.3,20.4c-20.66,11.29-28.99,7.1-21.72-4.25,13.69-21.37,36.27-45.69,49.47-59.1,3.46-3.52,4.47-10.03-15.71-4.27-25.47,6.07-58.06,8.87-79.21,3.53-4.86-1.23-5.36-.02-7.94,3.63-13.3,18.81-24.58,32-40.33,45.62-14.38,12.43-35.62,24.8-32.43,6.89,2.06-11.44,5.31-22.62,9.71-33.38h0c4.44-10.94,3.17-9.32,12.83-16.08,23.94-16.76,57.72-41.55,108.6-81.99,31.8-25.28,10.25-30.75-23.37-18.12-33.47,12.57-84.36,48.72-110.28,86.27-5.64,8.17-9.99,14.62-13.93,20.73-4.96,7.69-3.69,6.43-11.47,11.23-5.9,3.65-11.85,7.22-17.85,10.7l-52.34,28.61c-20.66,11.29-28.99,7.1-21.72-4.25,13.69-21.37,36.27-45.69,49.47-59.1,6.3-6.39-1.32-7.04-9.48-5.67-.45.06-.9.14-1.34.24l-.35.07-.08.02c-15.5,3.56-21.46-2.46-27.84-8.95-5.64-5.74-10.89-6.68-17.33-3.28-5.32,2.81-14.51,6.81-25.77,11.28-7.61,3.02-7.79,7.87-5.41,12.5,1.25,2.43,1.26,2.33-.45,4.47-14.74,18.5-42.79,40.87-66.31,52.68-24.34,12.21-28.18,7.1-20.91-4.25,13.69-21.37,35.46-45.69,48.66-59.1,8.2-8.33-7.2-6.91-16.69-3.99-17.31,5.33-23.56,6.22-50.05,37.61-2.28,2.7-4.94,5.06-7.9,7-11.89,7.78-25.59,15.72-39.65,23.26-20.75,11.13-24.46,5.62-15.9-4.79l16.18-19.65,32.48-39.45c7.43-9.03-11.38-5.32-21.22-3.99-2.45.32-4.89.69-7.33,1.1l-.2.03c-22.61,3.93-48.18,5-58.92,3.5-2.24-.31-4.35-1.23-6.1-2.66-3.84-3.11-10.93-4.79-22.66-4.16-40.43,2.19-111.16,26.23-120.97,85.83-5.5,33.43,19.71,26.38,43.37,14.92,30.23-14.64,69.25-40.22,84.73-56.17,6.56-6.76,14.57-16.55,17.81-25.25.32-.86,1.21-1.36,2.11-1.19,11.52,2.16,23.21,3.23,34.93,3.2,1.91,0,2.25.72,1.04,2.2l-18.77,22.8c-81.65,99.16,15.22,51.4,18.28,50.01,13.99-6.31,30.71-15.43,45.33-24.19-16.1,28.55-16.03,51.82,27.81,31.1,39.52-18.68,81.39-47.82,113.37-78.09.91-.86,2.23-1.14,3.41-.72,3.48,1.25,7.25,2.17,10.88,2.64,2.97.39,3.36,1.48,1.33,3.68-12.31,13.31-25.36,30.21-34.55,49.82-20.84,44.49-3.27,42.04,32.17,22.67,8.56-4.68,70.89-38.68,83.95-45.88,4.25-2.32,8.62-4.84,13.07-7.46,1.29-.76,1.91-.2,1.3,1.17-5.46,12.17-9.76,25.3-13.85,42.38-4.92,20.56,3.38,25,23,14.52,47.76-25.49,81.92-58.17,100.57-78.76,2.76-3.04,2.38-2.9,6.48-2.6,14.32,1.04,26.94.07,37.35-1.64,1.79-.3,2.24.49,1.1,1.9-12.08,14.81-26.71,33.38-39.17,54.51-24.94,42.32-3.27,41.23,32.17,21.86,7.2-3.93,52.42-28.61,74.39-40.64,1.27-.7,1.84-.19,1.29,1.15-4.37,10.55-8.24,21.29-11.6,32.2-4.99,16.1,1.83,29.24,23.11,17.61l104.36-57.04,7.21-3.94c1.31-.72,1.91-.14,1.27,1.2-6.67,13.85-12.3,28.16-16.87,42.83-4.83,15.62-1.61,28.08,19.03,16.8l96.57-52.78c1.36-.75,2.01-.09,1.23,1.26-6.46,11.18-9.3,23.12-10.53,36.99-1.82,20.57,14.29,12.75,27.25,6.48,19.44-9.4,41.3-22.24,57.81-35.4,18.49-14.76,33.66-29.57,42.12-41.8.67-.96,1.79-1.51,2.96-1.44,5.67.34,12.85.32,19.89-.21,4.31-.32,8.6-.81,12.87-1.46,2.3-.35,2.86.55,1.53,2.47-.09.14-.19.27-.28.41-12.6,18.26-23.52,33.86-44.14,65.55-10.58,16.25-.12,22.66,15.81,9.12l-.18.22c35.09-25.89,48.43-34.73,71.54-46.1,30.28-14.9,44.54-19.08,34.67-1.5-4.4,7.84-10.02,19.36-14.08,29.69-9.17,23.32-1.24,23.73,36.62,23.73h286.01v-.02ZM635.57,151.96c-6.03,8.04-17.63,20.36-28.05,27.18-26.23,17.16-40.36,15.03-35.87-.87,4.49-15.93,15.35-29.49,33.11-38.62,30.47-15.67,48.45-11.2,30.81,12.31h0ZM1077.67,103.31c-2.33,1.57-2.89.99-1.26-1.29,15.73-21.96,35.53-40.19,56.19-53.84,29.78-19.68,25.3-2.5,0,16.55-11.58,8.72-32.22,23.24-54.94,38.58ZM1364.3,49.23c25.01-19.13,42.98-16.96,22.7,3.32-13.26,13.26-32.48,30.44-63.02,53.32-11.74,8.79-21.73,15.59-30.69,21.19.33-.21-2.29,1.53-.81-.81,22.35-35.63,52.7-62.39,71.82-77.02h0ZM1489.53,48.05c22.87-16.04,47.87-16.38,35.63-2.13-12.24,14.24-43.77,36.27-85.57,59.29-6.33,3.49-12.67,6.97-19.02,10.44-1.56.85-1.38-.03-.75-.87,24.86-33.2,55.29-56.63,69.7-66.73h0ZM1541.05,156.37c-7.82,9.82-21.52,22.56-31.74,28.15-15.53,8.49-18.67,4.24-18.14-5.33.51-9.29,11.14-28.54,25.11-36.47,30.44-17.3,37.76-2.66,24.77,13.65h0Z"/>
  <path d="M567.63,68.01c-9.78-.37-18.78-.4-31.49,0-8.96.28-17.38,4.32-22.62,11.59-15.08,20.91-52.95,73.4-63.76,88.47-1.15,1.61-2.22,1.24-2.15-.73,2.13-58.3-95.91-104.84-341.29-121.41-51.59-3.48-39.31-8.94,11.91-9.45,206.73-2.06,805.02-4.68,916.74-5.19,11.39-.05,22.65-2.54,32.99-7.32l8.74-4.05c5.37-2.49,8.41-5.34-1.2-5.5C973.41,12.77,278.94,1.66,89.39.13c-11.02-.09-21.94,2-32.15,6.15C37.46,14.35,11.47,26.51,2.5,31.94c-10.46,6.32,11.6,14.86,72.93,19.22,390.59,27.76,391.47,98.21,306.13,211.99-3.78,5.04-6.24,10.94-7.17,17.17l-4.02,27.36c-1.03,7.01,3.55,8.26,8.06,2.79l192.66-233.97c6.93-8.41,6.51-8.11-3.46-8.48h0Z"/>
</svg>